<?xml version="1.0" encoding="utf-8"?>
<svg version="1.1" xmlns:xlink="http://www.w3.org/1999/xlink" width="16px" height="16px" xmlns="http://www.w3.org/2000/svg">
  <g transform="matrix(1 0 0 1 -570 -369 )">
    <path d="M 578 369  C 582.48 369  586 372.52  586 377  C 586 381.48  582.48 385  578 385  C 573.52 385  570 381.48  570 377  C 570 372.52  573.52 369  578 369  Z " fill-rule="nonzero" fill="#ffffff" stroke="none" fill-opacity="0" />
    <path d="M 578 369.5  C 582.2 369.5  585.5 372.8  585.5 377  C 585.5 381.2  582.2 384.5  578 384.5  C 573.8 384.5  570.5 381.2  570.5 377  C 570.5 372.8  573.8 369.5  578 369.5  Z " stroke-width="1" stroke="#bfbfbf" fill="none" />
  </g>
</svg>