<?xml version="1.0" encoding="utf-8"?>
<svg version="1.1" xmlns:xlink="http://www.w3.org/1999/xlink" width="42px" height="40px" xmlns="http://www.w3.org/2000/svg">
  <g transform="matrix(1 0 0 1 -145 -58 )">
    <path d="M 146 62  A 3 3 0 0 1 149 59 L 183 59  A 3 3 0 0 1 186 62 L 186 94  A 3 3 0 0 1 183 97 L 149 97  A 3 3 0 0 1 146 94 L 146 62  Z " fill-rule="nonzero" fill="#bfbfbf" stroke="none" fill-opacity="0.498039215686275" />
    <path d="M 145.5 62  A 3.5 3.5 0 0 1 149 58.5 L 183 58.5  A 3.5 3.5 0 0 1 186.5 62 L 186.5 94  A 3.5 3.5 0 0 1 183 97.5 L 149 97.5  A 3.5 3.5 0 0 1 145.5 94 L 145.5 62  Z " stroke-width="1" stroke="#bfbfbf" fill="none" stroke-opacity="0.498039215686275" />
  </g>
</svg>