<?xml version="1.0" encoding="utf-8"?>
<svg version="1.1" xmlns:xlink="http://www.w3.org/1999/xlink" width="22px" height="22px" xmlns="http://www.w3.org/2000/svg">
  <defs>
    <mask fill="white" id="clip13">
      <path d="M 22 4.88888888888891  L 22 17.1111111111111  C 22 19.8488888888889  20.8266666666666 22  19.3333333333334 22  L 2.66666666666663 22  C 1.1733333333334 22  0 19.8488888888889  0 17.1111111111111  L 0 4.88888888888891  C 0 2.15111111111116  1.1733333333334 0  2.66666666666663 0  L 19.3333333333334 0  C 20.8266666666666 0  22 2.15111111111116  22 4.88888888888891  Z " fill-rule="evenodd" />
    </mask>
  </defs>
  <g transform="matrix(1 0 0 1 -694 -187 )">
    <path d="M 22 4.88888888888891  L 22 17.1111111111111  C 22 19.8488888888889  20.8266666666666 22  19.3333333333334 22  L 2.66666666666663 22  C 1.1733333333334 22  0 19.8488888888889  0 17.1111111111111  L 0 4.88888888888891  C 0 2.15111111111116  1.1733333333334 0  2.66666666666663 0  L 19.3333333333334 0  C 20.8266666666666 0  22 2.15111111111116  22 4.88888888888891  Z " fill-rule="nonzero" fill="#ffffff" stroke="none" transform="matrix(1 0 0 1 694 187 )" />
    <path d="M 22 4.88888888888891  L 22 17.1111111111111  C 22 19.8488888888889  20.8266666666666 22  19.3333333333334 22  L 2.66666666666663 22  C 1.1733333333334 22  0 19.8488888888889  0 17.1111111111111  L 0 4.88888888888891  C 0 2.15111111111116  1.1733333333334 0  2.66666666666663 0  L 19.3333333333334 0  C 20.8266666666666 0  22 2.15111111111116  22 4.88888888888891  Z " stroke-width="2" stroke="#d9d9d9" fill="none" transform="matrix(1 0 0 1 694 187 )" mask="url(#clip13)" />
  </g>
</svg>